<?xml version="1.0" encoding="UTF-8" standalone="no"?>
<!DOCTYPE svg PUBLIC "-//W3C//DTD SVG 1.1//EN" "http://www.w3.org/Graphics/SVG/1.1/DTD/svg11.dtd">
<svg width="100%" height="100%" viewBox="0 0 385 490" version="1.1" xmlns="http://www.w3.org/2000/svg" xmlns:xlink="http://www.w3.org/1999/xlink" xml:space="preserve" xmlns:serif="http://www.serif.com/" style="fill-rule:evenodd;clip-rule:evenodd;stroke-linecap:round;stroke-linejoin:round;stroke-miterlimit:1.5;">
    <g transform="matrix(1,0,0,1,-447.68,-155.169)">
        <g transform="matrix(1.90331,0,0,1.90331,-121.325,-33.173)">
            <path d="M340,287.866C340,283.088 337.938,278.542 334.344,275.394C313.303,257.061 300,230.072 300,200C300,144.808 344.808,100 400,100C455.192,100 500,144.808 500,200C500,230.095 486.677,257.102 465.613,275.441C462.05,278.557 460.005,283.06 460.005,287.793C459.997,301.831 459.994,318.226 459.989,328.844C459.989,334.493 456.257,339.463 450.833,341.039C448.177,341.803 445.898,343.102 444.241,345.288C441.552,348.828 438.211,351.193 433.818,351.882C420.396,353.988 404.187,356.212 400,354C395.834,356.836 381.704,353.898 366.778,352.006C362.893,351.514 358.265,349.202 355.642,346.292C353.92,344.398 351.495,342.975 348.466,341.917C343.396,340.147 340,335.364 340,329.994L340,287.866Z" style="fill:none;stroke:black;stroke-width:2.09px;"/>
        </g>
        <g transform="matrix(-1.90331,-2.33089e-16,2.33089e-16,-1.90331,1401.33,860.19)">
            <path d="M400,185.6C402.022,180 406.066,180 408.088,184C410.111,188 407.022,196.373 405,204.373C403.585,214.624 403.033,223.524 400,216.173C396.967,223.502 396.415,214.293 395,204.373C392.978,196.373 389.89,188 391.912,184C393.934,180 397.978,180 400,185.6Z" style="fill:none;stroke:black;stroke-width:2.09px;"/>
        </g>
        <g transform="matrix(2.37914,0,0,2.37914,-302.14,-161.888)">
            <path d="M353.6,223.2C362.587,218.495 377.521,214.832 382.8,228.4C388.451,239.677 384.464,253.841 366,256.228C353.621,258.409 347.858,257.208 343.2,245.6C341.866,234.643 343.306,227.183 353.6,223.2Z" style="fill:none;stroke:black;stroke-width:1.67px;"/>
        </g>
        <g transform="matrix(-2.37914,0,0,2.37914,1582.14,-161.888)">
            <path d="M353.6,223.2C362.587,218.495 377.521,214.832 382.8,228.4C388.451,239.677 384.464,253.841 366,256.228C353.621,258.409 347.858,257.208 343.2,245.6C341.866,234.643 343.306,227.183 353.6,223.2Z" style="fill:none;stroke:black;stroke-width:1.67px;"/>
        </g>
        <g transform="matrix(1.90331,0,0,1.90331,-121.325,-33.173)">
            <path d="M370,325C364.737,322.59 363.726,322.604 359.266,311.349C354.623,299.632 353.203,283.712 353.203,283.712C353.203,283.712 365.437,289.037 366.965,295.283C369.252,304.63 370,306.17 370,306.17L430,306.17C430,306.17 430.748,304.46 433.035,295.114C434.563,288.868 446.797,283.543 446.797,283.543C446.797,283.543 445.377,299.463 440.734,311.179C436.274,322.435 436.35,320.375 430,325C423.676,329.606 400.194,325.038 400.001,325C400,325 400,325 399.999,325C399.808,325.026 376.761,328.096 370,325Z" style="fill:none;stroke:black;stroke-width:2.09px;"/>
        </g>
        <g transform="matrix(1.90331,0,0,2.31541,-123.229,-158.763)">
            <rect x="371" y="306" width="5" height="8" style="fill:none;stroke:black;stroke-width:1.88px;"/>
        </g>
        <g transform="matrix(1.90331,0,0,2.07302,-123.229,-65.8718)">
            <path d="M376,306L371,306L371,314L376,315L376,306Z" style="fill:none;stroke:black;stroke-width:2px;"/>
        </g>
        <g transform="matrix(1.90331,0,0,2.31541,-94.6789,-158.763)">
            <rect x="371" y="306" width="5" height="8" style="fill:none;stroke:black;stroke-width:1.88px;"/>
        </g>
        <g transform="matrix(1.90331,0,0,2.07302,-94.679,-65.8718)">
            <path d="M376,306L371,306L371,315.292L376,315.003L376,306Z" style="fill:none;stroke:black;stroke-width:2px;"/>
        </g>
        <g transform="matrix(1.90331,0,0,2.31541,-66.1292,-158.763)">
            <rect x="371" y="306" width="5" height="8" style="fill:none;stroke:black;stroke-width:1.88px;"/>
        </g>
        <g transform="matrix(1.90331,0,0,2.07302,-66.1293,-65.8718)">
            <path d="M376,306L371,306L371,314L376,314.833L376,306Z" style="fill:none;stroke:black;stroke-width:2px;"/>
        </g>
        <g transform="matrix(1.90331,0,0,2.31541,-37.5795,-158.763)">
            <rect x="371" y="306" width="5" height="8" style="fill:none;stroke:black;stroke-width:1.88px;"/>
        </g>
        <g transform="matrix(1.90331,0,0,2.07302,-37.5796,-65.8718)">
            <path d="M376,306L371,306L371,315.911L376,316.052L376,306Z" style="fill:none;stroke:black;stroke-width:2px;"/>
        </g>
        <g transform="matrix(1.90331,0,0,2.31541,-113.712,-158.763)">
            <rect x="371" y="306" width="5" height="8" style="fill:none;stroke:black;stroke-width:1.88px;"/>
        </g>
        <g transform="matrix(1.90331,0,0,2.07302,-113.712,-65.8718)">
            <path d="M376,306L371,306L371,315L376,315.378L376,306Z" style="fill:none;stroke:black;stroke-width:2px;"/>
        </g>
        <g transform="matrix(1.90331,0,0,2.31541,-85.1624,-158.763)">
            <rect x="371" y="306" width="5" height="8" style="fill:none;stroke:black;stroke-width:1.88px;"/>
        </g>
        <g transform="matrix(1.90331,0,0,2.07302,-85.1624,-65.8718)">
            <path d="M376,306L371,306L371.046,315L376,314.568L376,306Z" style="fill:none;stroke:black;stroke-width:2px;"/>
        </g>
        <g transform="matrix(1.90331,0,0,2.31541,-56.6127,-158.763)">
            <rect x="371" y="306" width="5" height="8" style="fill:none;stroke:black;stroke-width:1.88px;"/>
        </g>
        <g transform="matrix(1.90331,0,0,2.07302,-56.6127,-65.8718)">
            <path d="M376,306L371,306L371,314.833L376,315.477L376,306Z" style="fill:none;stroke:black;stroke-width:2px;"/>
        </g>
        <g transform="matrix(1.90331,0,0,2.31541,-28.063,-158.763)">
            <rect x="371" y="306" width="5" height="8" style="fill:none;stroke:black;stroke-width:1.88px;"/>
        </g>
        <g transform="matrix(1.90331,0,0,2.07302,-28.063,-65.8718)">
            <path d="M376,306L371,306L371,316.052L376,315.699L376,306Z" style="fill:none;stroke:black;stroke-width:2px;"/>
        </g>
        <g transform="matrix(1.90331,0,0,2.31541,-104.196,-158.763)">
            <rect x="371" y="306" width="5" height="8" style="fill:none;stroke:black;stroke-width:1.88px;"/>
        </g>
        <g transform="matrix(1.90331,0,0,2.07302,-104.196,-65.8718)">
            <path d="M376,306L371,306L371,315.378L376,315.292L376,306Z" style="fill:none;stroke:black;stroke-width:2px;"/>
        </g>
        <g transform="matrix(1.90331,0,0,2.31541,-75.6458,-158.763)">
            <rect x="371" y="306" width="5" height="8" style="fill:none;stroke:black;stroke-width:1.88px;"/>
        </g>
        <g transform="matrix(1.90331,0,0,2.07302,-75.6458,-65.8718)">
            <path d="M376,306L371,306L371,314.5L376,314L376,306Z" style="fill:none;stroke:black;stroke-width:2px;"/>
        </g>
        <g transform="matrix(1.90331,0,0,2.31541,-47.0961,-158.763)">
            <rect x="371" y="306" width="5" height="8" style="fill:none;stroke:black;stroke-width:1.88px;"/>
        </g>
        <g transform="matrix(1.90331,0,0,2.07302,-47.0961,-65.8718)">
            <path d="M376,306L371,306L371,315.477L376,315.911L376,306Z" style="fill:none;stroke:black;stroke-width:2px;"/>
        </g>
        <g transform="matrix(1.90331,0,0,2.31541,-18.5464,-158.763)">
            <path d="M376,306L371,306L371,314L376,314L376,306Z" style="fill:none;stroke:black;stroke-width:1.88px;"/>
        </g>
        <g transform="matrix(1.90331,0,0,2.07302,-18.5464,-65.8718)">
            <path d="M376,306L371,306L371,315.699L376,314L376,306Z" style="fill:none;stroke:black;stroke-width:2px;"/>
        </g>
        <g transform="matrix(1.90331,0,0,1.90331,-121.325,-33.173)">
            <path d="M446.797,283.543C451.883,280.935 466.205,276.287 474.211,267" style="fill:none;stroke:black;stroke-width:2.09px;"/>
        </g>
        <g transform="matrix(-1.90331,0,0,1.90331,1400.94,-33.173)">
            <path d="M446.797,283.543C451.883,280.935 466.205,276.287 474.211,267" style="fill:none;stroke:black;stroke-width:2.09px;"/>
        </g>
        <g id="bags">
            <g transform="matrix(1,0,0,1,-1.75865,-2.19739)">
                <path d="M524.456,460.349C547.719,484.605 577.789,477.779 606.692,455.035" style="fill:none;stroke:black;stroke-width:4.17px;"/>
            </g>
            <g transform="matrix(-1,0,0,1,1281.76,-2.19739)">
                <path d="M524.456,460.349C547.719,484.605 577.789,477.779 606.692,455.035" style="fill:none;stroke:black;stroke-width:4.17px;"/>
            </g>
            <g transform="matrix(1,0,0,1,-1.75865,13.3262)">
                <path d="M530.385,465.656C547.148,479.911 570.773,478.732 597.175,464.488" style="fill:none;stroke:black;stroke-width:4.17px;"/>
            </g>
            <g transform="matrix(-1,0,0,1,1281.76,13.3262)">
                <path d="M530.385,465.656C547.148,479.911 570.773,478.732 597.175,464.488" style="fill:none;stroke:black;stroke-width:4.17px;"/>
            </g>
        </g>
    </g>
</svg>
